<?xml version="1.0" encoding="UTF-8"?>
<!DOCTYPE svg PUBLIC "-//W3C//DTD SVG 1.1//EN" "http://www.w3.org/Graphics/SVG/1.1/DTD/svg11.dtd">
<svg xmlns="http://www.w3.org/2000/svg" version="1.1" width="24px" height="24px" style="shape-rendering:geometricPrecision; text-rendering:geometricPrecision; image-rendering:optimizeQuality; fill-rule:evenodd; clip-rule:evenodd" xmlns:xlink="http://www.w3.org/1999/xlink">
<g><path style="opacity:0.874" fill="#777676" d="M 4.5,-0.5 C 5.16667,-0.5 5.83333,-0.5 6.5,-0.5C 7.34141,1.3792 7.67474,3.3792 7.5,5.5C 6.16667,5.5 4.83333,5.5 3.5,5.5C 3.32526,3.3792 3.65859,1.3792 4.5,-0.5 Z"/></g>
<g><path style="opacity:0.874" fill="#777676" d="M 10.5,-0.5 C 11.1667,-0.5 11.8333,-0.5 12.5,-0.5C 13.3414,1.3792 13.6747,3.3792 13.5,5.5C 12.1667,5.5 10.8333,5.5 9.5,5.5C 9.32526,3.3792 9.65859,1.3792 10.5,-0.5 Z"/></g>
<g><path style="opacity:0.874" fill="#777676" d="M 16.5,-0.5 C 17.1667,-0.5 17.8333,-0.5 18.5,-0.5C 19.3414,1.3792 19.6747,3.3792 19.5,5.5C 18.1667,5.5 16.8333,5.5 15.5,5.5C 15.3253,3.3792 15.6586,1.3792 16.5,-0.5 Z"/></g>
<g><path style="opacity:0.967" fill="#777676" d="M 4.5,6.5 C 5.79974,7.10787 7.13307,7.77453 8.5,8.5C 9.67209,8.08138 10.6721,7.41471 11.5,6.5C 13.5,9.16667 15.5,9.16667 17.5,6.5C 18.1667,7.16667 18.8333,7.83333 19.5,8.5C 20.4922,12.7828 20.8256,17.1161 20.5,21.5C 14.5,21.5 8.5,21.5 2.5,21.5C 2.07515,16.2716 2.74182,11.2716 4.5,6.5 Z M 5.5,10.5 C 9.51383,10.3345 13.5138,10.5012 17.5,11C 18.4506,11.7175 18.6172,12.5509 18,13.5C 15.8797,10.9199 13.713,10.9199 11.5,13.5C 9.287,10.9199 7.12033,10.9199 5,13.5C 4.53042,12.4232 4.69708,11.4232 5.5,10.5 Z"/></g>
<g><path style="opacity:0.228" fill="#737373" d="M 7.5,14.5 C 8.45837,14.9528 9.2917,15.6195 10,16.5C 11.3333,15.1667 12.6667,15.1667 14,16.5C 14.6914,14.1088 15.6914,14.1088 17,16.5C 17.3333,16.1667 17.6667,15.8333 18,15.5C 18.49,16.7932 18.6567,18.1266 18.5,19.5C 13.8333,19.5 9.16667,19.5 4.5,19.5C 4.23798,18.0222 4.57131,16.6888 5.5,15.5C 6.94396,16.981 7.61063,16.6477 7.5,14.5 Z"/></g>
</svg>
