<?xml version="1.0" encoding="UTF-8"?>
<!DOCTYPE svg PUBLIC "-//W3C//DTD SVG 1.1//EN" "http://www.w3.org/Graphics/SVG/1.1/DTD/svg11.dtd">
<svg xmlns="http://www.w3.org/2000/svg" version="1.1" width="50px" height="50px" style="shape-rendering:geometricPrecision; text-rendering:geometricPrecision; image-rendering:optimizeQuality; fill-rule:evenodd; clip-rule:evenodd" xmlns:xlink="http://www.w3.org/1999/xlink">
<g><path style="opacity:1" fill="#767575" d="M -0.5,6.5 C 16.1667,6.5 32.8333,6.5 49.5,6.5C 49.5,18.5 49.5,30.5 49.5,42.5C 32.8333,42.5 16.1667,42.5 -0.5,42.5C -0.5,30.5 -0.5,18.5 -0.5,6.5 Z M 1.5,8.5 C 16.8478,8.1673 32.1811,8.50063 47.5,9.5C 40.4052,16.2651 32.7385,22.2651 24.5,27.5C 17.1845,22.8339 10.1845,17.6673 3.5,12C 2.17723,11.1841 1.51056,10.0174 1.5,8.5 Z M 1.5,14.5 C 8.89186,20.5614 16.5585,26.228 24.5,31.5C 32.3999,26.4428 39.8999,20.7761 47,14.5C 47.4998,23.1603 47.6664,31.8269 47.5,40.5C 32.1667,40.5 16.8333,40.5 1.5,40.5C 1.5,31.8333 1.5,23.1667 1.5,14.5 Z"/></g>
</svg>
