<?xml version="1.0" encoding="UTF-8"?>
<!DOCTYPE svg PUBLIC "-//W3C//DTD SVG 1.1//EN" "http://www.w3.org/Graphics/SVG/1.1/DTD/svg11.dtd">
<svg xmlns="http://www.w3.org/2000/svg" version="1.1" width="24px" height="24px" style="shape-rendering:geometricPrecision; text-rendering:geometricPrecision; image-rendering:optimizeQuality; fill-rule:evenodd; clip-rule:evenodd" xmlns:xlink="http://www.w3.org/1999/xlink">
<g><path style="opacity:0.982" fill="#767575" d="M 9.5,1.5 C 12.3245,1.08073 14.4912,2.08073 16,4.5C 16.414,4.04265 16.914,3.70931 17.5,3.5C 18.7703,6.10562 20.4369,8.43895 22.5,10.5C 21.675,11.3857 20.675,11.719 19.5,11.5C 19.5,14.5 19.5,17.5 19.5,20.5C 17.8333,20.5 16.1667,20.5 14.5,20.5C 14.5,18.1667 14.5,15.8333 14.5,13.5C 12.5,13.5 10.5,13.5 8.5,13.5C 8.5,15.8333 8.5,18.1667 8.5,20.5C 6.83333,20.5 5.16667,20.5 3.5,20.5C 3.5,17.5 3.5,14.5 3.5,11.5C 1.64527,11.728 0.811935,11.0613 1,9.5C 4.00297,6.93293 6.83631,4.26626 9.5,1.5 Z"/></g>
</svg>
