<?xml version="1.0" encoding="UTF-8"?>
<!DOCTYPE svg PUBLIC "-//W3C//DTD SVG 1.1//EN" "http://www.w3.org/Graphics/SVG/1.1/DTD/svg11.dtd">
<svg xmlns="http://www.w3.org/2000/svg" version="1.1" width="30px" height="30px" style="shape-rendering:geometricPrecision; text-rendering:geometricPrecision; image-rendering:optimizeQuality; fill-rule:evenodd; clip-rule:evenodd" xmlns:xlink="http://www.w3.org/1999/xlink">
<g><path style="opacity:0.911" fill="#767575" d="M 3.5,2.5 C 5.16667,2.5 6.83333,2.5 8.5,2.5C 8.5,4.16667 8.5,5.83333 8.5,7.5C 6.83333,7.5 5.16667,7.5 3.5,7.5C 3.5,5.83333 3.5,4.16667 3.5,2.5 Z"/></g>
<g><path style="opacity:0.958" fill="#767575" d="M 18.5,8.5 C 21.2724,8.21997 23.7724,8.88664 26,10.5C 26.4992,15.1548 26.6658,19.8215 26.5,24.5C 24.8333,24.5 23.1667,24.5 21.5,24.5C 21.6646,21.4816 21.498,18.4816 21,15.5C 19.8456,13.0426 18.5123,13.0426 17,15.5C 16.502,18.4816 16.3354,21.4816 16.5,24.5C 14.8333,24.5 13.1667,24.5 11.5,24.5C 11.5,19.5 11.5,14.5 11.5,9.5C 14.0593,9.80155 16.3926,9.46822 18.5,8.5 Z"/></g>
<g><path style="opacity:1" fill="#767675" d="M 3.5,9.5 C 5.16667,9.5 6.83333,9.5 8.5,9.5C 8.5,14.5 8.5,19.5 8.5,24.5C 6.83333,24.5 5.16667,24.5 3.5,24.5C 3.5,19.5 3.5,14.5 3.5,9.5 Z"/></g>
</svg>
