<?xml version="1.0" standalone="no"?>
<!DOCTYPE svg PUBLIC "-//W3C//DTD SVG 20010904//EN"
 "http://www.w3.org/TR/2001/REC-SVG-20010904/DTD/svg10.dtd">
<svg version="1.0" xmlns="http://www.w3.org/2000/svg"
 width="48.000000pt" height="48.000000pt" viewBox="0 0 48.000000 48.000000"
 preserveAspectRatio="xMidYMid meet">

<g transform="translate(0.000000,48.000000) scale(0.100000,-0.100000)"
fill="#000000" stroke="none">
<path d="M152 429 c-73 -21 -76 -129 -6 -245 46 -76 68 -99 120 -125 41 -19
45 -19 77 -4 19 9 40 28 46 42 10 22 8 31 -14 65 -26 39 -28 40 -78 36 -51 -3
-52 -2 -72 34 l-20 37 21 23 c33 36 35 56 14 97 -15 31 -42 56 -53 50 -1 0
-17 -5 -35 -10z m66 -44 c17 -36 15 -43 -13 -77 -24 -28 -24 -31 -9 -66 26
-62 43 -75 92 -68 37 5 47 3 63 -17 23 -28 24 -45 2 -69 -49 -54 -152 20 -213
154 -24 54 -26 125 -3 150 24 27 67 23 81 -7z"/>
</g>
</svg>
